<svg data-v-423bf9ae="" xmlns="http://www.w3.org/2000/svg" viewBox="0 0 340.52472961832154 60" class="font"><!----><!----><!----><g data-v-423bf9ae="" id="fab42ea0-74e3-4095-8fd5-4854829b002a" fill="white" transform="matrix(4.497751235961914,0,0,4.497751235961914,-4.5427327156066895,-2.0239882469177246)"><path d="M4.10 3.36C3.11 3.36 2.04 3.85 2.04 3.85L2.04 0.45L1.01 0.45L1.01 10.49C1.01 10.49 2.51 10.64 3.35 10.64C5.89 10.64 6.65 9.67 6.65 6.89C6.65 4.37 6.01 3.36 4.10 3.36ZM3.33 9.70C2.95 9.70 2.04 9.63 2.04 9.63L2.04 4.70C2.04 4.70 3.02 4.30 3.99 4.30C5.22 4.30 5.59 5.08 5.59 6.89C5.59 8.85 5.25 9.70 3.33 9.70ZM12.74 3.50L12.74 9.18C12.74 9.18 11.86 9.70 10.82 9.70C9.52 9.70 9.35 9.07 9.35 7.14L9.35 3.50L8.30 3.50L8.30 7.15C8.30 9.73 8.71 10.64 10.67 10.64C11.69 10.64 12.74 10.01 12.74 10.01L12.74 10.50L13.79 10.50L13.79 3.50ZM18.51 13.79C20.48 13.79 21.62 13.15 21.62 11.56C21.62 9.90 20.90 9.51 18.91 9.51C17.33 9.51 17.22 9.42 17.22 8.86C17.22 8.68 17.47 8.06 17.47 8.06C17.63 8.09 18.02 8.12 18.16 8.12C19.95 8.12 20.86 7.57 20.86 5.75C20.86 5.01 20.66 4.62 20.40 4.35L21.73 4.38L21.73 3.49L19.66 3.54C19.66 3.54 18.90 3.36 18.20 3.36C16.65 3.36 15.58 4.03 15.58 5.75C15.58 7.04 16.10 7.60 16.69 7.87C16.69 7.87 16.21 8.71 16.21 8.97C16.21 9.41 16.35 9.77 16.60 9.94C15.88 10.49 15.50 10.86 15.50 11.68C15.50 13.30 16.30 13.79 18.51 13.79ZM18.83 10.43C20.10 10.43 20.55 10.54 20.55 11.61C20.55 12.53 19.92 12.91 18.52 12.91C16.94 12.91 16.53 12.56 16.53 11.59C16.53 11.05 16.73 10.79 17.32 10.36C17.32 10.36 18.34 10.43 18.83 10.43ZM18.20 7.28C17.11 7.28 16.63 6.86 16.63 5.75C16.63 4.65 17.11 4.21 18.20 4.21C19.38 4.21 19.81 4.65 19.81 5.75C19.81 6.86 19.38 7.28 18.20 7.28ZM24.05 10.50L24.05 4.72C24.05 4.72 25.03 4.30 26.03 4.30C27.31 4.30 27.52 4.98 27.52 6.83L27.52 10.50L28.57 10.50L28.57 6.80C28.57 4.31 28.13 3.36 26.21 3.36C25.17 3.36 24.05 3.89 24.05 3.89L24.05 0.45L23.00 0.45L23.00 10.50ZM34.89 3.50L34.89 9.18C34.89 9.18 34.01 9.70 32.97 9.70C31.67 9.70 31.50 9.07 31.50 7.14L31.50 3.50L30.45 3.50L30.45 7.15C30.45 9.73 30.86 10.64 32.82 10.64C33.84 10.64 34.89 10.01 34.89 10.01L34.89 10.50L35.94 10.50L35.94 3.50ZM39.00 10.50L39.00 4.82C39.00 4.82 39.97 4.30 40.98 4.30C42.28 4.30 42.49 4.98 42.49 6.83L42.49 10.50L43.53 10.50L43.53 6.80C43.53 4.31 43.09 3.36 41.16 3.36C40.12 3.36 38.99 3.99 38.99 3.99L38.99 3.50L37.95 3.50L37.95 10.50ZM49.06 4.41L49.06 3.50L46.83 3.50L46.83 1.36L45.79 1.36L45.79 3.50L44.80 3.50L44.80 4.41L45.79 4.41L45.79 8.09C45.79 10.11 46.28 10.65 47.73 10.65C48.22 10.65 49.15 10.50 49.15 10.50L49.08 9.63C49.08 9.63 48.23 9.72 47.84 9.72C46.93 9.72 46.83 9.28 46.83 7.76L46.83 4.41ZM52.93 9.72C51.56 9.72 51.10 8.93 51.10 7.43L55.72 7.43L55.78 6.64C55.78 4.34 54.82 3.36 52.96 3.36C51.18 3.36 50.04 4.38 50.04 7.04C50.04 9.42 50.72 10.64 52.81 10.64C53.94 10.64 55.54 10.42 55.54 10.42L55.51 9.59C55.51 9.59 53.98 9.72 52.93 9.72ZM51.09 6.59C51.10 4.90 51.77 4.24 52.96 4.24C54.19 4.24 54.73 4.86 54.73 6.59ZM57.41 10.50L58.46 10.50L58.46 5.36C58.46 5.36 59.70 4.68 61.01 4.41L61.01 3.35C59.67 3.61 58.45 4.45 58.45 4.45L58.45 3.50L57.41 3.50ZM61.42 10.50L62.57 10.50L62.57 8.90L61.42 8.90ZM68.88 3.50L68.88 9.18C68.88 9.18 68.00 9.70 66.96 9.70C65.66 9.70 65.49 9.07 65.49 7.14L65.49 3.50L64.44 3.50L64.44 7.15C64.44 9.73 64.85 10.64 66.81 10.64C67.83 10.64 68.88 10.01 68.88 10.01L68.88 10.50L69.93 10.50L69.93 3.50ZM71.53 4.44L75.45 4.44L71.53 9.56L71.53 10.50L76.72 10.50L76.72 9.56L72.80 9.56L76.72 4.44L76.72 3.50L71.53 3.50Z"></path></g><!----><!----></svg>